<svg xmlns="http://www.w3.org/2000/svg" viewBox="0 0 80.13 30"><defs><style>.cls-1{fill:#a7a9ac;}.cls-2{fill:#f22613;}</style></defs><title>Asset 86</title><g id="Layer_2" data-name="Layer 2"><g id="Layer_1-2" data-name="Layer 1"><circle class="cls-1" cx="15.05" cy="15" r="10"/><path class="cls-2" d="M3.46,8.52A13.24,13.24,0,0,1,25,6.37L23.33,6.1l-.28,1.74,4.7.74.73-4.64-1.74-.27-.26,1.67A15,15,0,0,0,10.24.78,15,15,0,0,0,.35,18.23l1.72-.38A13.2,13.2,0,0,1,3.46,8.52Z"/><path class="cls-2" d="M29.43,10.91l-1.69.48A13.23,13.23,0,0,1,4.27,22.73L6.21,23l.27-1.74-4.7-.74L1.05,25.2l1.74.27L3,24a15,15,0,0,0,26.41-13.1Z"/><path d="M9.91,15a5.08,5.08,0,0,1,1.53-3.65A16.34,16.34,0,0,0,7,15,18.18,18.18,0,0,0,9.57,17.5a12.26,12.26,0,0,0,1.88,1.16A5.11,5.11,0,0,1,9.91,15Z"/><circle cx="15.04" cy="15" r="3.71"/><path d="M20.43,12.51a11.68,11.68,0,0,0-1.7-1.07,5.12,5.12,0,0,1,0,7.15A13.27,13.27,0,0,0,23,15,17.38,17.38,0,0,0,20.43,12.51Z"/><path d="M40.09,21.8a.17.17,0,0,1-.18.17H36.74a.17.17,0,0,1-.18-.17V9a.17.17,0,0,1,.18-.17h.8c.11,0,.16,0,.16.17V20.83h2.21a.18.18,0,0,1,.18.18Z"/><path d="M42,23.61a.17.17,0,0,1,0,.26l-.61.6q-.12.11-.21,0l-.06,0-.61-.62a.2.2,0,0,1,0-.27l.59-.59a.2.2,0,0,1,.23,0l0,0Zm-.13-1.81a.17.17,0,0,1-.17.17h-.8a.16.16,0,0,1-.17-.17V9c0-.12.05-.17.17-.17h.8a.17.17,0,0,1,.17.17Z"/><path d="M45.29,10.6a.63.63,0,0,0-1.26,0v9.59a.63.63,0,1,0,1.26,0V18.27c0-.12.05-.17.17-.17h.8a.17.17,0,0,1,.17.15v1.94a1.77,1.77,0,1,1-3.54,0V10.6a1.77,1.77,0,0,1,3.54,0v1.22a.17.17,0,0,1-.17.15h-.8c-.12,0-.17-.05-.17-.16Z"/><path d="M51.1,21.83a.18.18,0,0,1-.18.14h-.8a.14.14,0,0,1-.16-.16V17.69H48.7v4.12a.17.17,0,0,1-.18.16h-.8a.14.14,0,0,1-.16-.16V9c0-.12,0-.17.16-.17h.8A.17.17,0,0,1,48.7,9v7.56H50V9c0-.12,0-.17.16-.17h.8A.16.16,0,0,1,51.1,9Z"/><path d="M58.7,11.62a.15.15,0,0,1-.17.15h-.8a.17.17,0,0,1-.17-.17v-1a.63.63,0,1,0-1.25,0v2a.63.63,0,0,0,.62.64,1.54,1.54,0,0,1,.63.11,1.86,1.86,0,0,1,.68.46A1.73,1.73,0,0,1,58.7,15v5.2a1.74,1.74,0,0,1-1.14,1.65,1.9,1.9,0,0,1-.63.11,1.84,1.84,0,0,1-.62-.11,1.74,1.74,0,0,1-1.14-1.65V17.64c0-.11,0-.17.16-.17h.8a.18.18,0,0,1,.18.17v2.57a.63.63,0,0,0,1.25,0V15a.63.63,0,0,0-.63-.63,1.52,1.52,0,0,1-.62-.11,1.65,1.65,0,0,1-.67-.45,1.79,1.79,0,0,1-.47-1.21v-2a1.75,1.75,0,0,1,1.14-1.66,1.52,1.52,0,0,1,.62-.11,1.54,1.54,0,0,1,.63.11,1.75,1.75,0,0,1,1.14,1.66Z"/><path d="M64,8.24a1.43,1.43,0,0,1-.26,1,1.49,1.49,0,0,1-.5.36V20.21a1.77,1.77,0,0,1-3.54,0V9a.17.17,0,0,1,.17-.17h.8c.12,0,.17,0,.17.17V20.21a.63.63,0,0,0,.63.62.63.63,0,0,0,.63-.62V9a.17.17,0,0,1,.17-.17h.38a.45.45,0,0,0,.25-.12A.55.55,0,0,0,63,8.23V8.16s0,0,0-.05A.15.15,0,0,1,63.21,8h.61c.08,0,.14,0,.15.11s0,0,0,.05Zm-2,0a3,3,0,0,0,.44-.69.72.72,0,0,0-.47-1,2,2,0,0,0-.85-.09c-.05,0-.12,0-.14.06s-.12.42-.14.51,0,.11.06.11c.3,0,.9,0,.73.34-.07.13-.32.49-.44.67s0,.1,0,.14h.61a.17.17,0,0,0,.12,0S61.93,8.28,61.94,8.26Z"/><path d="M70.84,10.58v9.63a1.76,1.76,0,0,1-1.14,1.65,1.62,1.62,0,0,1-.53.11H67.45c-.1,0-.15-.07-.15-.17v-6H67a.24.24,0,0,1-.24-.24V15a.24.24,0,0,1,.24-.24h.31V9a.15.15,0,0,1,.15-.17h1.72a1.93,1.93,0,0,1,.53.11A1.77,1.77,0,0,1,70.84,10.58Zm-1.14,0a.64.64,0,0,0-.64-.63h-.62v4.8h.68a.24.24,0,0,1,.24.25v.54a.24.24,0,0,1-.24.24h-.68v5h.62a.63.63,0,0,0,.64-.62Z"/><path d="M75.56,10.58v9.63a1.8,1.8,0,0,1-.39,1.1,1.74,1.74,0,0,1-1.38.66,1.77,1.77,0,0,1-1.39-.66,1.85,1.85,0,0,1-.38-1.1V10.58a1.86,1.86,0,0,1,.38-1.11,1.74,1.74,0,0,1,1.39-.66,1.71,1.71,0,0,1,1.38.66A1.8,1.8,0,0,1,75.56,10.58Zm-1,13a.17.17,0,0,1,0,.26l-.62.6q-.12.11-.21,0l0,0-.62-.62a.2.2,0,0,1,0-.27l.6-.59a.2.2,0,0,1,.23,0l0,0Zm-.14-13a.63.63,0,0,0-.63-.63.63.63,0,0,0-.63.63v9.63a.63.63,0,0,0,.63.62.63.63,0,0,0,.63-.62Z"/><path d="M79,10.6a.63.63,0,0,0-.63-.62.63.63,0,0,0-.63.62v9.59a.63.63,0,0,0,.63.63.63.63,0,0,0,.63-.63V18.27c0-.12.05-.17.16-.17H80a.18.18,0,0,1,.18.15v1.94a1.77,1.77,0,1,1-3.54,0V10.6a1.77,1.77,0,0,1,3.54,0v1.22A.18.18,0,0,1,80,12h-.8a.14.14,0,0,1-.16-.16Z"/></g></g></svg>